# Made in Blockbench 4.2.4
mtllib antenna.mtl

o cube
v 0.125 0.0625 0.125
v 0.125 0.0625 -0.125
v 0.125 -0.0625 0.125
v 0.125 -0.0625 -0.125
v -0.125 0.0625 -0.125
v -0.125 0.0625 0.125
v -0.125 -0.0625 -0.125
v -0.125 -0.0625 0.125
vt 0 0.75
vt 0.25 0.75
vt 0.25 0.625
vt 0 0.625
vt 0.25 1
vt 0.5 1
vt 0.5 0.875
vt 0.25 0.875
vt 0 0.75
vt 0.25 0.75
vt 0.25 0.625
vt 0 0.625
vt 0.25 1
vt 0.5 1
vt 0.5 0.875
vt 0.25 0.875
vt 0.25 0.75
vt 0 0.75
vt 0 1
vt 0.25 1
vt 0 1
vt 0.25 1
vt 0.25 0.75
vt 0 0.75
vn 0 0 -1
vn 1 0 0
vn 0 0 1
vn -1 0 0
vn 0 1 0
vn 0 -1 0
usemtl m_0
f 4/4/1 7/3/1 5/2/1 2/1/1
f 3/8/2 4/7/2 2/6/2 1/5/2
f 8/12/3 3/11/3 1/10/3 6/9/3
f 7/16/4 8/15/4 6/14/4 5/13/4
f 6/20/5 1/19/5 2/18/5 5/17/5
f 7/24/6 4/23/6 3/22/6 8/21/6
o cube
v 0.03125 0.3125 0.03125
v 0.03125 0.3125 -0.03125
v 0.03125 0.0625 0.03125
v 0.03125 0.0625 -0.03125
v -0.03125 0.3125 -0.03125
v -0.03125 0.3125 0.03125
v -0.03125 0.0625 -0.03125
v -0.03125 0.0625 0.03125
vt 0.25 0.875
vt 0.3125 0.875
vt 0.3125 0.625
vt 0.25 0.625
vt 0.25 0.875
vt 0.3125 0.875
vt 0.3125 0.625
vt 0.25 0.625
vt 0.25 0.875
vt 0.3125 0.875
vt 0.3125 0.625
vt 0.25 0.625
vt 0.25 0.875
vt 0.3125 0.875
vt 0.3125 0.625
vt 0.25 0.625
vn 0 0 -1
vn 1 0 0
vn 0 0 1
vn -1 0 0
usemtl m_0
f 12/28/7 15/27/7 13/26/7 10/25/7
f 11/32/8 12/31/8 10/30/8 9/29/8
f 16/36/9 11/35/9 9/34/9 14/33/9
f 15/40/10 16/39/10 14/38/10 13/37/10
o cube
v 0.0625 0.4375 0.0625
v 0.0625 0.4375 -0.0625
v 0.0625 0.3125 0.0625
v 0.0625 0.3125 -0.0625
v -0.0625 0.4375 -0.0625
v -0.0625 0.4375 0.0625
v -0.0625 0.3125 -0.0625
v -0.0625 0.3125 0.0625
vt 0.3125 0.875
vt 0.4375 0.875
vt 0.4375 0.75
vt 0.3125 0.75
vt 0.3125 0.75
vt 0.4375 0.75
vt 0.4375 0.625
vt 0.3125 0.625
vt 0.3125 0.875
vt 0.4375 0.875
vt 0.4375 0.75
vt 0.3125 0.75
vt 0.3125 0.75
vt 0.4375 0.75
vt 0.4375 0.625
vt 0.3125 0.625
vt 0.125 0.5
vt 0 0.5
vt 0 0.625
vt 0.125 0.625
vt 0.25 0.625
vt 0.125 0.625
vt 0.125 0.5
vt 0.25 0.5
vn 0 0 -1
vn 1 0 0
vn 0 0 1
vn -1 0 0
vn 0 1 0
vn 0 -1 0
usemtl m_0
f 20/44/11 23/43/11 21/42/11 18/41/11
f 19/48/12 20/47/12 18/46/12 17/45/12
f 24/52/13 19/51/13 17/50/13 22/49/13
f 23/56/14 24/55/14 22/54/14 21/53/14
f 22/60/15 17/59/15 18/58/15 21/57/15
f 23/64/16 20/63/16 19/62/16 24/61/16