# Made in Blockbench 4.2.4
mtllib unicorn_hat.mtl

o cube
v 0.25 -0.0625 0.25
v 0.25 -0.0625 -0.25
v 0.25 -0.5 0.25
v 0.25 -0.5 -0.25
v -0.25 -0.0625 -0.25
v -0.25 -0.0625 0.25
v -0.25 -0.5 -0.25
v -0.25 -0.5 0.25
vt 0.25 1
vt 0.5 1
vt 0.5 0.78125
vt 0.25 0.78125
vt 0.25 0.78125
vt 0.5 0.78125
vt 0.5 0.5625
vt 0.25 0.5625
vt 0.25 0.5625
vt 0.5 0.5625
vt 0.5 0.34375
vt 0.25 0.34375
vt 0.5 0.78125
vt 0.25 0.78125
vt 0.25 0.5625
vt 0.5 0.5625
vt 0.25 0.75
vt 0 0.75
vt 0 1
vt 0.25 1
vt 0.25 0.75
vt 0 0.75
vt 0 0.5
vt 0.25 0.5
vn 0 0 -1
vn 1 0 0
vn 0 0 1
vn -1 0 0
vn 0 1 0
vn 0 -1 0
usemtl m_0
f 4/4/1 7/3/1 5/2/1 2/1/1
f 3/8/2 4/7/2 2/6/2 1/5/2
f 8/12/3 3/11/3 1/10/3 6/9/3
f 7/16/4 8/15/4 6/14/4 5/13/4
f 6/20/5 1/19/5 2/18/5 5/17/5
f 7/24/6 4/23/6 3/22/6 8/21/6
o cube
v 0.25 -0.125 -0.25
v 0.25 -0.125 -0.25
v 0.25 -0.25 -0.25
v 0.25 -0.25 -0.25
v -0.25 -0.125 -0.25
v -0.25 -0.125 -0.25
v -0.25 -0.25 -0.25
v -0.25 -0.25 -0.25
vt 0 0.1875
vt 0.25 0.1875
vt 0.25 0.125
vt 0 0.125
vn 0 0 -1
usemtl m_0
f 12/28/7 15/27/7 13/26/7 10/25/7
o cube
v 0.0625 0 0.3125
v 0.0625 0 -0.0625
v 0.0625 -0.0625 0.3125
v 0.0625 -0.0625 -0.0625
v -0.0625 0 -0.0625
v -0.0625 0 0.3125
v -0.0625 -0.0625 -0.0625
v -0.0625 -0.0625 0.3125
vt 0.625 0.875
vt 0.6875 0.875
vt 0.6875 0.84375
vt 0.625 0.84375
vt 0.5 0.5
vt 0.6875 0.5
vt 0.6875 0.46875
vt 0.5 0.46875
vt 0.1875 0.34375
vt 0.25 0.34375
vt 0.25 0.3125
vt 0.1875 0.3125
vt 0.6875 0.5
vt 0.5 0.5
vt 0.5 0.46875
vt 0.6875 0.46875
vt 0.1875 0.3125
vt 0.125 0.3125
vt 0.125 0.5
vt 0.1875 0.5
vn 0 0 -1
vn 1 0 0
vn 0 0 1
vn -1 0 0
vn 0 1 0
usemtl m_0
f 20/32/8 23/31/8 21/30/8 18/29/8
f 19/36/9 20/35/9 18/34/9 17/33/9
f 24/40/10 19/39/10 17/38/10 22/37/10
f 23/44/11 24/43/11 22/42/11 21/41/11
f 22/48/12 17/47/12 18/46/12 21/45/12
o cube
v 0.0625 -0.0625 0.3125
v 0.0625 -0.0625 0.25
v 0.0625 -0.375 0.3125
v 0.0625 -0.375 0.25
v -0.0625 -0.0625 0.25
v -0.0625 -0.0625 0.3125
v -0.0625 -0.375 0.25
v -0.0625 -0.375 0.3125
vt 0.53125 0.375
vt 0.5625 0.375
vt 0.5625 0.21875
vt 0.53125 0.21875
vt 0.1875 0.5
vt 0.25 0.5
vt 0.25 0.34375
vt 0.1875 0.34375
vt 0.5625 0.375
vt 0.53125 0.375
vt 0.53125 0.21875
vt 0.5625 0.21875
vt 0.3125 0.34375
vt 0.25 0.34375
vt 0.25 0.3125
vt 0.3125 0.3125
vn 1 0 0
vn 0 0 1
vn -1 0 0
vn 0 -1 0
usemtl m_0
f 27/52/13 28/51/13 26/50/13 25/49/13
f 32/56/14 27/55/14 25/54/14 30/53/14
f 31/60/15 32/59/15 30/58/15 29/57/15
f 31/64/16 28/63/16 27/62/16 32/61/16
o cube
v 0.0625 0.06391812500000005 -0.29060125000000003
v 0.0625 -0.0244702226483184 -0.37898959764831847
v 0.0625 -0.06866439647247763 -0.15801872852752233
v 0.0625 -0.15705274412079606 -0.24640707617584076
v -0.0625 -0.0244702226483184 -0.37898959764831847
v -0.0625 0.06391812500000005 -0.29060125000000003
v -0.0625 -0.15705274412079606 -0.24640707617584076
v -0.0625 -0.06866439647247763 -0.15801872852752233
vt 0.5625 0.625
vt 0.625 0.625
vt 0.625 0.53125
vt 0.5625 0.53125
vt 0.5625 0.46875
vt 0.625 0.46875
vt 0.625 0.375
vt 0.5625 0.375
vt 0.625 1
vt 0.6875 1
vt 0.6875 0.90625
vt 0.625 0.90625
vt 0.625 0.625
vt 0.6875 0.625
vt 0.6875 0.53125
vt 0.625 0.53125
vt 0.6875 0.40625
vt 0.625 0.40625
vt 0.625 0.46875
vt 0.6875 0.46875
vt 0.625 0.375
vt 0.5625 0.375
vt 0.5625 0.3125
vt 0.625 0.3125
vn 0 -0.7071067811865476 -0.7071067811865475
vn 1 0 0
vn 0 0.7071067811865476 0.7071067811865475
vn -1 0 0
vn 0 0.7071067811865475 -0.7071067811865476
vn 0 -0.7071067811865475 0.7071067811865476
usemtl m_0
f 36/68/17 39/67/17 37/66/17 34/65/17
f 35/72/18 36/71/18 34/70/18 33/69/18
f 40/76/19 35/75/19 33/74/19 38/73/19
f 39/80/20 40/79/20 38/78/20 37/77/20
f 38/84/21 33/83/21 34/82/21 37/81/21
f 39/88/22 36/87/22 35/86/22 40/85/22
o cube
v 0.03125 0.1744035595603981 -0.44528085838455733
v 0.03125 0.13020938573623886 -0.4894750322087165
v 0.03125 0.04182103808792044 -0.31269833691207966
v 0.03125 -0.0023731357362387906 -0.35689251073623884
v -0.03125 0.13020938573623886 -0.4894750322087165
v -0.03125 0.1744035595603981 -0.44528085838455733
v -0.03125 -0.0023731357362387906 -0.35689251073623884
v -0.03125 0.04182103808792044 -0.31269833691207966
vt 0.625 0.40625
vt 0.65625 0.40625
vt 0.65625 0.3125
vt 0.625 0.3125
vt 0 0.34375
vt 0.03125 0.34375
vt 0.03125 0.25
vt 0 0.25
vt 0.03125 0.34375
vt 0.0625 0.34375
vt 0.0625 0.25
vt 0.03125 0.25
vt 0.0625 0.34375
vt 0.09375 0.34375
vt 0.09375 0.25
vt 0.0625 0.25
vt 0.125 0.3125
vt 0.09375 0.3125
vt 0.09375 0.34375
vt 0.125 0.34375
vt 0.34375 0.34375
vt 0.3125 0.34375
vt 0.3125 0.3125
vt 0.34375 0.3125
vn 0 -0.7071067811865476 -0.7071067811865475
vn 1 0 0
vn 0 0.7071067811865476 0.7071067811865475
vn -1 0 0
vn 0 0.7071067811865475 -0.7071067811865476
vn 0 -0.7071067811865475 0.7071067811865476
usemtl m_0
f 44/92/23 47/91/23 45/90/23 42/89/23
f 43/96/24 44/95/24 42/94/24 41/93/24
f 48/100/25 43/99/25 41/98/25 46/97/25
f 47/104/26 48/103/26 46/102/26 45/101/26
f 46/108/27 41/107/27 42/106/27 45/105/27
f 47/112/28 44/111/28 43/110/28 48/109/28
o cube
v 0.3915961028709561 0.10359137290925234 0.16383250000000005
v 0.3915961028709561 0.10359137290925234 0.10133250000000005
v 0.2720075302568655 -0.18512098100052476 0.16383250000000005
v 0.2720075302568655 -0.18512098100052476 0.10133250000000005
v 0.1606262197431344 0.19926223100052476 0.10133250000000005
v 0.1606262197431344 0.19926223100052476 0.16383250000000005
v 0.04103764712904384 -0.08945012290925235 0.10133250000000005
v 0.04103764712904384 -0.08945012290925235 0.16383250000000005
vt 0 0.5
vt 0.125 0.5
vt 0.125 0.34375
vt 0 0.34375
vt 0.5 0.375
vt 0.53125 0.375
vt 0.53125 0.21875
vt 0.5 0.21875
vt 0.5 1
vt 0.625 1
vt 0.625 0.84375
vt 0.5 0.84375
vt 0.5 0.375
vt 0.53125 0.375
vt 0.53125 0.21875
vt 0.5 0.21875
vt 0.6875 0.5
vt 0.5625 0.5
vt 0.5625 0.53125
vt 0.6875 0.53125
vt 0.75 0.90625
vt 0.625 0.90625
vt 0.625 0.875
vt 0.75 0.875
vn 0 0 -1
vn 0.9238795325112867 -0.3826834323650897 0
vn 0 0 1
vn -0.9238795325112867 0.3826834323650897 0
vn 0.3826834323650897 0.9238795325112867 0
vn -0.3826834323650897 -0.9238795325112867 0
usemtl m_0
f 52/116/29 55/115/29 53/114/29 50/113/29
f 51/120/30 52/119/30 50/118/30 49/117/30
f 56/124/31 51/123/31 49/122/31 54/121/31
f 55/128/32 56/127/32 54/126/32 53/125/32
f 54/132/33 49/131/33 50/130/33 53/129/33
f 55/136/34 52/135/34 51/134/34 56/133/34
o cube
v -0.16062621974313446 0.19926223100052476 0.16383250000000005
v -0.16062621974313446 0.19926223100052476 0.10133250000000005
v -0.0410376471290439 -0.08945012290925235 0.16383250000000005
v -0.0410376471290439 -0.08945012290925235 0.10133250000000005
v -0.3915961028709561 0.10359137290925235 0.10133250000000005
v -0.3915961028709561 0.10359137290925235 0.16383250000000005
v -0.2720075302568656 -0.18512098100052476 0.10133250000000005
v -0.2720075302568656 -0.18512098100052476 0.16383250000000005
vt 0.125 0.5
vt 0 0.5
vt 0 0.34375
vt 0.125 0.34375
vt 0.53125 0.375
vt 0.5 0.375
vt 0.5 0.21875
vt 0.53125 0.21875
vt 0.625 1
vt 0.5 1
vt 0.5 0.84375
vt 0.625 0.84375
vt 0.53125 0.375
vt 0.5 0.375
vt 0.5 0.21875
vt 0.53125 0.21875
vt 0.5625 0.5
vt 0.6875 0.5
vt 0.6875 0.53125
vt 0.5625 0.53125
vt 0.625 0.90625
vt 0.75 0.90625
vt 0.75 0.875
vt 0.625 0.875
vn 0 0 -1
vn 0.9238795325112867 0.3826834323650897 0
vn 0 0 1
vn -0.9238795325112867 -0.3826834323650897 0
vn -0.3826834323650897 0.9238795325112867 0
vn 0.3826834323650897 -0.9238795325112867 0
usemtl m_0
f 60/140/35 63/139/35 61/138/35 58/137/35
f 59/144/36 60/143/36 58/142/36 57/141/36
f 64/148/37 59/147/37 57/146/37 62/145/37
f 63/152/38 64/151/38 62/150/38 61/149/38
f 62/156/39 57/155/39 58/154/39 61/153/39
f 63/160/40 60/159/40 59/158/40 64/157/40
o cube
v 0.25 -0.5 0.0625
v 0.25 -0.5 -0.0625
v 0.25 -0.75 0.0625
v 0.25 -0.75 -0.0625
v 0.25 -0.5 -0.0625
v 0.25 -0.5 0.0625
v 0.25 -0.75 -0.0625
v 0.25 -0.75 0.0625
vt 0 1
vt 0 1
vt 0 0.875
vt 0 0.875
vt 0.5 0.625
vt 0.5625 0.625
vt 0.5625 0.5
vt 0.5 0.5
vt 0 1
vt 0 1
vt 0 0.875
vt 0 0.875
vt 0.5625 0.625
vt 0.5 0.625
vt 0.5 0.5
vt 0.5625 0.5
vt 0 0.9375
vt 0 0.9375
vt 0 1
vt 0 1
vt 0 1
vt 0 1
vt 0 0.9375
vt 0 0.9375
vn 0 0 -1
vn 1 0 0
vn 0 0 1
vn -1 0 0
vn 0 1 0
vn 0 -1 0
usemtl m_0
f 68/164/41 71/163/41 69/162/41 66/161/41
f 67/168/42 68/167/42 66/166/42 65/165/42
f 72/172/43 67/171/43 65/170/43 70/169/43
f 71/176/44 72/175/44 70/174/44 69/173/44
f 70/180/45 65/179/45 66/178/45 69/177/45
f 71/184/46 68/183/46 67/182/46 72/181/46
o cube
v 0.25 -0.3125 0.0625
v 0.25 -0.3125 -0.0625
v 0.25 -0.5 0.0625
v 0.25 -0.5 -0.0625
v 0.25 -0.3125 -0.0625
v 0.25 -0.3125 0.0625
v 0.25 -0.5 -0.0625
v 0.25 -0.5 0.0625
vt 0.125 0.3125
vt 0.1875 0.3125
vt 0.1875 0.40625
vt 0.125 0.40625
vn 1 0 0
usemtl m_0
f 75/188/47 76/187/47 74/186/47 73/185/47
o cube
v -0.25 -0.3125 0.0625
v -0.25 -0.3125 -0.0625
v -0.25 -0.5 0.0625
v -0.25 -0.5 -0.0625
v -0.25 -0.3125 -0.0625
v -0.25 -0.3125 0.0625
v -0.25 -0.5 -0.0625
v -0.25 -0.5 0.0625
vt 0.1875 0.3125
vt 0.125 0.3125
vt 0.125 0.40625
vt 0.1875 0.40625
vn -1 0 0
usemtl m_0
f 87/192/48 88/191/48 86/190/48 85/189/48
o cube
v -0.25 -0.5 0.0625
v -0.25 -0.5 -0.0625
v -0.25 -0.75 0.0625
v -0.25 -0.75 -0.0625
v -0.25 -0.5 -0.0625
v -0.25 -0.5 0.0625
v -0.25 -0.75 -0.0625
v -0.25 -0.75 0.0625
vt 0 1
vt 0 1
vt 0 0.875
vt 0 0.875
vt 0.5 0.625
vt 0.5625 0.625
vt 0.5625 0.5
vt 0.5 0.5
vt 0 1
vt 0 1
vt 0 0.875
vt 0 0.875
vt 0.5625 0.625
vt 0.5 0.625
vt 0.5 0.5
vt 0.5625 0.5
vt 0 0.9375
vt 0 0.9375
vt 0 1
vt 0 1
vt 0 1
vt 0 1
vt 0 0.9375
vt 0 0.9375
vn 0 0 -1
vn 1 0 0
vn 0 0 1
vn -1 0 0
vn 0 1 0
vn 0 -1 0
usemtl m_0
f 92/196/49 95/195/49 93/194/49 90/193/49
f 91/200/50 92/199/50 90/198/50 89/197/50
f 96/204/51 91/203/51 89/202/51 94/201/51
f 95/208/52 96/207/52 94/206/52 93/205/52
f 94/212/53 89/211/53 90/210/53 93/209/53
f 95/216/54 92/215/54 91/214/54 96/213/54
o cube
v 0.1875 -0.25 -0.25
v 0.1875 -0.25 -0.375
v 0.1875 -0.4375 -0.25
v 0.1875 -0.4375 -0.375
v -0.1875 -0.25 -0.375
v -0.1875 -0.25 -0.25
v -0.1875 -0.4375 -0.375
v -0.1875 -0.4375 -0.25
vt 0.5 0.84375
vt 0.6875 0.84375
vt 0.6875 0.75
vt 0.5 0.75
vt 0.5 0.46875
vt 0.5625 0.46875
vt 0.5625 0.375
vt 0.5 0.375
vt 0.5625 0.46875
vt 0.5 0.46875
vt 0.5 0.375
vt 0.5625 0.375
vt 0.6875 0.6875
vt 0.5 0.6875
vt 0.5 0.75
vt 0.6875 0.75
vt 0.6875 0.6875
vt 0.5 0.6875
vt 0.5 0.625
vt 0.6875 0.625
vn 0 0 -1
vn 1 0 0
vn -1 0 0
vn 0 1 0
vn 0 -1 0
usemtl m_0
f 100/220/55 103/219/55 101/218/55 98/217/55
f 99/224/56 100/223/56 98/222/56 97/221/56
f 103/228/57 104/227/57 102/226/57 101/225/57
f 102/232/58 97/231/58 98/230/58 101/229/58
f 103/236/59 100/235/59 99/234/59 104/233/59