# Blender v2.78 (sub 0) OBJ File: ''
# www.blender.org
mtllib corpse_freezer_closed.mtl
o cube
v -0.437500 0.500000 1.437500
v -0.437500 -0.500000 1.437500
v -0.437500 0.500000 -0.500000
v -0.437500 -0.500000 -0.500000
v -0.500000 0.500000 -0.500000
v -0.500000 -0.500000 -0.500000
v -0.500000 0.500000 1.437500
v -0.500000 -0.500000 1.437500
v 0.500000 0.500000 1.437500
v 0.500000 -0.500000 1.437500
v 0.500000 0.500000 -0.500000
v 0.500000 -0.500000 -0.500000
v 0.437500 0.500000 -0.500000
v 0.437500 -0.500000 -0.500000
v 0.437500 0.500000 1.437500
v 0.437500 -0.500000 1.437500
v 0.437500 -0.437500 1.437500
v 0.437500 -0.500000 1.437500
v 0.437500 -0.437500 -0.500000
v 0.437500 -0.500000 -0.500000
v -0.437500 -0.437500 -0.500000
v -0.437500 -0.500000 -0.500000
v -0.437500 -0.437500 1.437500
v -0.437500 -0.500000 1.437500
v 0.437500 0.500000 1.437500
v 0.437500 0.437500 1.437500
v 0.437500 0.500000 -0.562500
v 0.437500 0.437500 -0.562500
v -0.437500 0.500000 -0.562500
v -0.437500 0.437500 -0.562500
v -0.437500 0.500000 1.437500
v -0.437500 0.437500 1.437500
v 0.500000 0.500000 1.500000
v 0.500000 -0.500000 1.500000
v 0.500000 0.500000 1.437500
v 0.500000 -0.500000 1.437500
v -0.500000 0.500000 1.437500
v -0.500000 -0.500000 1.437500
v -0.500000 0.500000 1.500000
v -0.500000 -0.500000 1.500000
v 0.437500 0.437500 -0.500000
v 0.437500 -0.437500 -0.500000
v 0.437500 0.437500 -0.521875
v 0.437500 -0.437500 -0.521875
v -0.437500 0.437500 -0.521875
v -0.437500 -0.437500 -0.521875
v -0.437500 0.437500 -0.500000
v -0.437500 -0.437500 -0.500000
v 0.500000 -0.309375 -0.500000
v 0.500000 -0.375000 -0.500000
v 0.500000 -0.309375 -0.525000
v 0.500000 -0.375000 -0.525000
v 0.375000 -0.309375 -0.525000
v 0.375000 -0.375000 -0.525000
v 0.375000 -0.309375 -0.500000
v 0.375000 -0.375000 -0.500000
v 0.500000 0.378125 -0.500000
v 0.500000 0.312500 -0.500000
v 0.500000 0.378125 -0.525000
v 0.500000 0.312500 -0.525000
v 0.375000 0.378125 -0.525000
v 0.375000 0.312500 -0.525000
v 0.375000 0.378125 -0.500000
v 0.375000 0.312500 -0.500000
v -0.354688 0.062500 -0.542188
v -0.354688 -0.062500 -0.542188
v -0.354688 0.062500 -0.559375
v -0.354688 -0.062500 -0.559375
v -0.375000 0.062500 -0.559375
v -0.375000 -0.062500 -0.559375
v -0.375000 0.062500 -0.542188
v -0.375000 -0.062500 -0.542188
v -0.354688 0.079688 -0.501562
v -0.354688 0.062500 -0.501562
v -0.354688 0.079688 -0.559375
v -0.354688 0.062500 -0.559375
v -0.375000 0.079688 -0.559375
v -0.375000 0.062500 -0.559375
v -0.375000 0.079688 -0.501562
v -0.375000 0.062500 -0.501562
v -0.354688 -0.062500 -0.501562
v -0.354688 -0.079687 -0.501562
v -0.354688 -0.062500 -0.559375
v -0.354688 -0.079687 -0.559375
v -0.375000 -0.062500 -0.559375
v -0.375000 -0.079687 -0.559375
v -0.375000 -0.062500 -0.501562
v -0.375000 -0.079687 -0.501562
v 0.500000 0.500000 -0.500000
v 0.500000 0.437500 -0.500000
v 0.500000 0.500000 -0.562500
v 0.500000 0.437500 -0.562500
v 0.437500 0.500000 -0.562500
v 0.437500 0.437500 -0.562500
v 0.437500 0.500000 -0.500000
v 0.437500 0.437500 -0.500000
v -0.437500 0.500000 -0.500000
v -0.437500 0.437500 -0.500000
v -0.437500 0.500000 -0.562500
v -0.437500 0.437500 -0.562500
v -0.500000 0.500000 -0.562500
v -0.500000 0.437500 -0.562500
v -0.500000 0.500000 -0.500000
v -0.500000 0.437500 -0.500000
vt 0.0000 1.0000
vt 0.0000 0.9344
vt 0.1250 1.0000
vt 0.1250 0.9344
vt 0.0000 1.0000
vt 0.0000 0.9344
vt 0.1250 1.0000
vt 0.1250 0.9344
vt 0.0000 0.9344
vt 0.1250 0.9344
vt 0.0000 1.0000
vt 0.1250 1.0000
vt 0.0000 1.0000
vt 0.0000 0.9344
vt 0.1250 1.0000
vt 0.1250 0.9344
vt 0.0000 1.0000
vt 0.0000 0.9344
vt 0.1250 1.0000
vt 0.1250 0.9344
vt 0.0000 1.0000
vt 0.0000 0.9344
vt 0.1250 1.0000
vt 0.1250 0.9344
vt 0.0000 1.0000
vt 0.0000 0.9344
vt 0.1250 1.0000
vt 0.1250 0.9344
vt 0.0000 0.9344
vt 0.1250 0.9344
vt 0.0000 1.0000
vt 0.1250 1.0000
vt 0.0000 1.0000
vt 0.0000 0.9344
vt 0.1250 1.0000
vt 0.1250 0.9344
vt 0.0000 1.0000
vt 0.0000 0.9344
vt 0.1250 1.0000
vt 0.1250 0.9344
vt 0.0000 1.0000
vt 0.0000 0.8750
vt 0.0203 1.0000
vt 0.0203 0.8750
vt 0.0000 1.0000
vt 0.0000 0.8750
vt 0.0203 1.0000
vt 0.0203 0.8750
vt 0.0000 0.8750
vt 0.0203 0.8750
vt 0.0000 1.0000
vt 0.0203 1.0000
vt 0.0000 1.0000
vt 0.0000 0.8750
vt 0.0203 1.0000
vt 0.0203 0.8750
vt 0.0000 1.0000
vt 0.0000 0.8750
vt 0.0203 1.0000
vt 0.0203 0.8750
vt 0.0203 0.9422
vt 0.0203 1.0000
vt 0.0000 0.9422
vt 0.0000 1.0000
vt 0.0203 0.9422
vt 0.0203 1.0000
vt 0.0000 0.9422
vt 0.0000 1.0000
vt 0.0203 1.0000
vt 0.0000 1.0000
vt 0.0203 0.9422
vt 0.0000 0.9422
vt 0.0203 0.9422
vt 0.0203 1.0000
vt 0.0000 0.9422
vt 0.0000 1.0000
vt 0.0203 0.9422
vt 0.0203 1.0000
vt 0.0000 0.9422
vt 0.0000 1.0000
vt 0.0000 0.9422
vt 0.0172 0.9422
vt 0.0000 1.0000
vt 0.0172 1.0000
vt 0.0000 0.9422
vt 0.0172 0.9422
vt 0.0000 1.0000
vt 0.0172 1.0000
vt 0.0172 0.9422
vt 0.0172 1.0000
vt 0.0000 0.9422
vt 0.0000 1.0000
vt 0.0000 0.9422
vt 0.0172 0.9422
vt 0.0000 1.0000
vt 0.0172 1.0000
vt 0.0000 0.9422
vt 0.0172 0.9422
vt 0.0000 1.0000
vt 0.0172 1.0000
vt 1.0000 0.0000
vt 1.0000 1.0000
vt 0.0000 0.0000
vt 0.0000 1.0000
vt 1.0000 0.0000
vt 1.0000 1.0000
vt 0.0000 0.0000
vt 0.0000 1.0000
vt 1.0000 1.0000
vt 0.0000 1.0000
vt 1.0000 0.0000
vt 0.0000 0.0000
vt 1.0000 0.0000
vt 1.0000 1.0000
vt 0.0000 0.0000
vt 0.0000 1.0000
vt 1.0000 0.0000
vt 1.0000 1.0000
vt 0.0000 0.0000
vt 0.0000 1.0000
vt 1.0000 0.0000
vt 1.0000 1.0000
vt 0.0000 0.0000
vt 0.0000 1.0000
vt 1.0000 1.0000
vt 0.0000 1.0000
vt 1.0000 0.0000
vt 0.0000 0.0000
vt 0.0000 1.0000
vt 1.0000 0.0000
vt 0.0000 0.0000
vt 1.0000 1.0000
vt 1.0000 0.0000
vt 0.0000 0.0000
vt 1.0000 1.0000
vt 0.0000 1.0000
vt 0.0000 0.0000
vt 1.0000 1.0000
vt 1.0000 0.0000
vt 0.0000 0.0000
vt 0.0000 1.0000
vt 0.0000 0.0000
vt 1.0000 1.0000
vt 1.0000 0.0000
vt 0.0000 1.0000
vt 0.0000 0.0000
vt 1.0000 1.0000
vt 1.0000 0.0000
vt 0.0000 0.0000
vt 1.0000 0.0000
vt 0.0000 1.0000
vt 1.0000 1.0000
vt 0.0000 1.0000
vt 0.0000 0.0000
vt 1.0000 1.0000
vt 1.0000 0.0000
vt 0.0000 1.0000
vt 0.0000 0.0000
vt 1.0000 1.0000
vt 1.0000 0.0000
vt 0.0000 1.0000
vt 0.0000 0.0000
vt 0.8750 1.0000
vt 0.8750 0.0000
vt 0.0000 1.0000
vt 0.0000 0.0000
vt 0.8750 1.0000
vt 0.8750 0.0000
vt 0.0000 0.0000
vt 0.8750 0.0000
vt 0.0000 1.0000
vt 0.8750 1.0000
vt 0.0000 1.0000
vt 0.0000 0.0000
vt 0.8750 1.0000
vt 0.8750 0.0000
vt 0.0000 1.0000
vt 0.0000 0.0000
vt 0.8750 1.0000
vt 0.8750 0.0000
vt 1.0000 0.0000
vt 1.0000 1.0000
vt 0.0000 0.0000
vt 0.0000 1.0000
vt 1.0000 0.0000
vt 1.0000 1.0000
vt 0.0000 0.0000
vt 0.0000 1.0000
vt 0.0000 1.0000
vt 1.0000 1.0000
vt 1.0000 0.0000
vt 0.0000 0.0000
vt 1.0000 0.0000
vt 1.0000 1.0000
vt 0.0000 0.0000
vt 0.0000 1.0000
vt 1.0000 0.0000
vt 1.0000 1.0000
vt 0.0000 0.0000
vt 0.0000 1.0000
vt 0.0000 1.0000
vt 0.0000 0.0000
vt 1.0000 1.0000
vt 1.0000 0.0000
vt 0.0000 1.0000
vt 0.0000 0.0000
vt 1.0000 1.0000
vt 1.0000 0.0000
vt 0.0000 0.0000
vt 1.0000 0.0000
vt 0.0000 1.0000
vt 1.0000 1.0000
vt 0.0000 1.0000
vt 0.0000 0.0000
vt 1.0000 1.0000
vt 1.0000 0.0000
vt 0.0000 1.0000
vt 0.0000 0.0000
vt 1.0000 1.0000
vt 1.0000 0.0000
vt 0.0000 1.0000
vt 0.0000 0.0000
vt 0.8750 1.0000
vt 0.8750 0.0000
vt 0.0000 1.0000
vt 0.0000 0.0000
vt 0.8750 1.0000
vt 0.8750 0.0000
vt 0.0000 0.0000
vt 0.8750 0.0000
vt 0.0000 1.0000
vt 0.8750 1.0000
vt 0.0000 1.0000
vt 0.0000 0.0000
vt 0.8750 1.0000
vt 0.8750 0.0000
vt 0.0000 1.0000
vt 0.0000 0.0000
vt 0.8750 1.0000
vt 0.8750 0.0000
vt 0.0000 1.0000
vt 0.0000 0.0000
vt 0.8750 1.0000
vt 0.8750 0.0000
vt 0.0000 1.0000
vt 0.0000 0.0000
vt 0.8750 1.0000
vt 0.8750 0.0000
vt 0.0000 0.0000
vt 0.8750 0.0000
vt 0.0000 1.0000
vt 0.8750 1.0000
vt 0.0000 1.0000
vt 0.0000 0.0000
vt 0.8750 1.0000
vt 0.8750 0.0000
vt 0.0000 1.0000
vt 0.0000 0.0000
vt 0.8750 1.0000
vt 0.8750 0.0000
vn 1.0000 0.0000 0.0000
vn -1.0000 0.0000 0.0000
vn 0.0000 1.0000 0.0000
vn 0.0000 -1.0000 0.0000
vn 0.0000 0.0000 1.0000
vn 0.0000 0.0000 -1.0000
usemtl 1
s 1
f 49/1/1 50/2/1 51/3/1
f 50/2/1 52/4/1 51/3/1
f 53/5/2 54/6/2 55/7/2
f 54/6/2 56/8/2 55/7/2
f 53/5/3 55/9/3 51/3/3
f 55/9/3 49/10/3 51/3/3
f 56/11/4 54/6/4 50/12/4
f 54/6/4 52/4/4 50/12/4
f 55/13/5 56/14/5 49/15/5
f 56/14/5 50/16/5 49/15/5
f 51/17/6 52/18/6 53/19/6
f 52/18/6 54/20/6 53/19/6
f 57/21/1 58/22/1 59/23/1
f 58/22/1 60/24/1 59/23/1
f 61/25/2 62/26/2 63/27/2
f 62/26/2 64/28/2 63/27/2
f 61/25/3 63/29/3 59/23/3
f 63/29/3 57/30/3 59/23/3
f 64/31/4 62/26/4 58/32/4
f 62/26/4 60/24/4 58/32/4
f 63/33/5 64/34/5 57/35/5
f 64/34/5 58/36/5 57/35/5
f 59/37/6 60/38/6 61/39/6
f 60/38/6 62/40/6 61/39/6
f 65/41/1 66/42/1 67/43/1
f 66/42/1 68/44/1 67/43/1
f 69/45/2 70/46/2 71/47/2
f 70/46/2 72/48/2 71/47/2
f 69/45/3 71/49/3 67/43/3
f 71/49/3 65/50/3 67/43/3
f 72/51/4 70/46/4 66/52/4
f 70/46/4 68/44/4 66/52/4
f 71/53/5 72/54/5 65/55/5
f 72/54/5 66/56/5 65/55/5
f 67/57/6 68/58/6 69/59/6
f 68/58/6 70/60/6 69/59/6
f 73/61/1 74/62/1 75/63/1
f 74/62/1 76/64/1 75/63/1
f 77/65/2 78/66/2 79/67/2
f 78/66/2 80/68/2 79/67/2
f 77/65/3 79/69/3 75/63/3
f 79/69/3 73/70/3 75/63/3
f 80/71/4 78/66/4 74/72/4
f 78/66/4 76/64/4 74/72/4
f 79/73/5 80/74/5 73/75/5
f 80/74/5 74/76/5 73/75/5
f 75/77/6 76/78/6 77/79/6
f 76/78/6 78/80/6 77/79/6
f 81/81/1 82/82/1 83/83/1
f 82/82/1 84/84/1 83/83/1
f 85/85/2 86/86/2 87/87/2
f 86/86/2 88/88/2 87/87/2
f 85/85/3 87/89/3 83/83/3
f 87/89/3 81/90/3 83/83/3
f 88/91/4 86/86/4 82/92/4
f 86/86/4 84/84/4 82/92/4
f 87/93/5 88/94/5 81/95/5
f 88/94/5 82/96/5 81/95/5
f 83/97/6 84/98/6 85/99/6
f 84/98/6 86/100/6 85/99/6
usemtl 0
f 1/101/1 2/102/1 3/103/1
f 2/102/1 4/104/1 3/103/1
f 5/105/2 6/106/2 7/107/2
f 6/106/2 8/108/2 7/107/2
f 5/105/3 7/109/3 3/103/3
f 7/109/3 1/110/3 3/103/3
f 8/111/4 6/106/4 2/112/4
f 6/106/4 4/104/4 2/112/4
f 7/113/5 8/114/5 1/115/5
f 8/114/5 2/116/5 1/115/5
f 3/117/6 4/118/6 5/119/6
f 4/118/6 6/120/6 5/119/6
f 9/121/1 10/122/1 11/123/1
f 10/122/1 12/124/1 11/123/1
f 13/125/2 14/126/2 15/127/2
f 14/126/2 16/128/2 15/127/2
f 13/125/3 15/129/3 11/130/3
f 15/129/3 9/131/3 11/130/3
f 16/132/4 14/126/4 10/133/4
f 14/126/4 12/134/4 10/133/4
f 15/135/5 16/136/5 9/121/5
f 16/136/5 10/137/5 9/121/5
f 11/138/6 12/124/6 13/139/6
f 12/124/6 14/140/6 13/139/6
f 17/141/1 18/142/1 19/143/1
f 18/142/1 20/144/1 19/143/1
f 21/145/2 22/146/2 23/147/2
f 22/146/2 24/148/2 23/147/2
f 21/145/3 23/149/3 19/143/3
f 23/149/3 17/150/3 19/143/3
f 24/151/4 22/146/4 18/152/4
f 22/146/4 20/144/4 18/152/4
f 23/153/5 24/154/5 17/155/5
f 24/154/5 18/156/5 17/155/5
f 19/157/6 20/158/6 21/159/6
f 20/158/6 22/160/6 21/159/6
f 25/161/1 26/162/1 27/163/1
f 26/162/1 28/164/1 27/163/1
f 29/165/2 30/166/2 31/167/2
f 30/166/2 32/168/2 31/167/2
f 29/165/3 31/169/3 27/163/3
f 31/169/3 25/170/3 27/163/3
f 32/171/4 30/166/4 26/172/4
f 30/166/4 28/164/4 26/172/4
f 31/173/5 32/174/5 25/175/5
f 32/174/5 26/176/5 25/175/5
f 27/177/6 28/178/6 29/179/6
f 28/178/6 30/180/6 29/179/6
f 33/181/1 34/182/1 35/183/1
f 34/182/1 36/184/1 35/183/1
f 37/185/2 38/186/2 39/187/2
f 38/186/2 40/188/2 39/187/2
f 37/189/3 39/187/3 35/190/3
f 39/187/3 33/181/3 35/190/3
f 40/191/4 38/186/4 34/192/4
f 38/186/4 36/184/4 34/192/4
f 39/193/5 40/194/5 33/195/5
f 40/194/5 34/196/5 33/195/5
f 35/197/6 36/198/6 37/199/6
f 36/198/6 38/200/6 37/199/6
f 41/201/1 42/202/1 43/203/1
f 42/202/1 44/204/1 43/203/1
f 45/205/2 46/206/2 47/207/2
f 46/206/2 48/208/2 47/207/2
f 45/205/3 47/209/3 43/203/3
f 47/209/3 41/210/3 43/203/3
f 48/211/4 46/206/4 42/212/4
f 46/206/4 44/204/4 42/212/4
f 47/213/5 48/214/5 41/215/5
f 48/214/5 42/216/5 41/215/5
f 43/217/6 44/218/6 45/219/6
f 44/218/6 46/220/6 45/219/6
f 89/221/1 90/222/1 91/223/1
f 90/222/1 92/224/1 91/223/1
f 93/225/2 94/226/2 95/227/2
f 94/226/2 96/228/2 95/227/2
f 93/225/3 95/229/3 91/223/3
f 95/229/3 89/230/3 91/223/3
f 96/231/4 94/226/4 90/232/4
f 94/226/4 92/224/4 90/232/4
f 95/233/5 96/234/5 89/235/5
f 96/234/5 90/236/5 89/235/5
f 91/237/6 92/238/6 93/239/6
f 92/238/6 94/240/6 93/239/6
f 97/241/1 98/242/1 99/243/1
f 98/242/1 100/244/1 99/243/1
f 101/245/2 102/246/2 103/247/2
f 102/246/2 104/248/2 103/247/2
f 101/245/3 103/249/3 99/243/3
f 103/249/3 97/250/3 99/243/3
f 104/251/4 102/246/4 98/252/4
f 102/246/4 100/244/4 98/252/4
f 103/253/5 104/254/5 97/255/5
f 104/254/5 98/256/5 97/255/5
f 99/257/6 100/258/6 101/259/6
f 100/258/6 102/260/6 101/259/6
