# Blender v2.78 (sub 0) OBJ File: ''
# www.blender.org
mtllib corpse_freezer_open.mtl
o cube
v -0.437500 0.500000 1.437500
v -0.437500 -0.500000 1.437500
v -0.437500 0.500000 -0.500000
v -0.437500 -0.500000 -0.500000
v -0.500000 0.500000 -0.500000
v -0.500000 -0.500000 -0.500000
v -0.500000 0.500000 1.437500
v -0.500000 -0.500000 1.437500
v 0.500000 0.500000 1.437500
v 0.500000 -0.500000 1.437500
v 0.500000 0.500000 -0.500000
v 0.500000 -0.500000 -0.500000
v 0.437500 0.500000 -0.500000
v 0.437500 -0.500000 -0.500000
v 0.437500 0.500000 1.437500
v 0.437500 -0.500000 1.437500
v 0.437500 -0.437500 1.437500
v 0.437500 -0.500000 1.437500
v 0.437500 -0.437500 -0.500000
v 0.437500 -0.500000 -0.500000
v -0.437500 -0.437500 -0.500000
v -0.437500 -0.500000 -0.500000
v -0.437500 -0.437500 1.437500
v -0.437500 -0.500000 1.437500
v 0.437500 0.500000 1.437500
v 0.437500 0.437500 1.437500
v 0.437500 0.500000 -0.562500
v 0.437500 0.437500 -0.562500
v -0.437500 0.500000 -0.562500
v -0.437500 0.437500 -0.562500
v -0.437500 0.500000 1.437500
v -0.437500 0.437500 1.437500
v 0.500000 0.500000 1.500000
v 0.500000 -0.500000 1.500000
v 0.500000 0.500000 1.437500
v 0.500000 -0.500000 1.437500
v -0.500000 0.500000 1.437500
v -0.500000 -0.500000 1.437500
v -0.500000 0.500000 1.500000
v -0.500000 -0.500000 1.500000
v 1.321130 0.437500 -0.851783
v 1.321130 -0.437500 -0.851783
v 1.312758 0.437500 -0.871992
v 1.312758 -0.437500 -0.871992
v 0.504364 0.437500 -0.537144
v 0.504364 -0.437500 -0.537144
v 0.512735 0.437500 -0.516935
v 0.512735 -0.437500 -0.516935
v 0.571673 -0.309375 -0.537965
v 0.571673 -0.375000 -0.537965
v 0.560910 -0.309375 -0.563949
v 0.560910 -0.375000 -0.563949
v 0.445425 -0.309375 -0.516114
v 0.445425 -0.375000 -0.516114
v 0.456188 -0.309375 -0.490130
v 0.456188 -0.375000 -0.490130
v 0.571673 0.378125 -0.537965
v 0.571673 0.312500 -0.537965
v 0.560910 0.378125 -0.563949
v 0.560910 0.312500 -0.563949
v 0.445425 0.378125 -0.516114
v 0.445425 0.312500 -0.516114
v 0.456188 0.378125 -0.490130
v 0.456188 0.312500 -0.490130
v 1.277738 0.062500 -0.793219
v 1.277738 -0.062500 -0.793219
v 1.271160 0.062500 -0.809099
v 1.271160 -0.062500 -0.809099
v 1.252394 0.062500 -0.801325
v 1.252394 -0.062500 -0.801325
v 1.258971 0.062500 -0.785446
v 1.258971 -0.062500 -0.785446
v 1.277738 0.079688 -0.793219
v 1.277738 0.062500 -0.793219
v 1.255614 0.079688 -0.846631
v 1.255614 0.062500 -0.846631
v 1.236848 0.079688 -0.838858
v 1.236848 0.062500 -0.838858
v 1.258971 0.079688 -0.785446
v 1.258971 0.062500 -0.785446
v 1.277738 -0.062500 -0.793219
v 1.277738 -0.079687 -0.793219
v 1.255614 -0.062500 -0.846631
v 1.255614 -0.079687 -0.846631
v 1.236848 -0.062500 -0.838858
v 1.236848 -0.079687 -0.838858
v 1.258971 -0.062500 -0.785446
v 1.258971 -0.079687 -0.785446
v 0.500000 0.500000 -0.500000
v 0.500000 0.437500 -0.500000
v 0.500000 0.500000 -0.562500
v 0.500000 0.437500 -0.562500
v 0.437500 0.500000 -0.562500
v 0.437500 0.437500 -0.562500
v 0.437500 0.500000 -0.500000
v 0.437500 0.437500 -0.500000
v -0.437500 0.500000 -0.500000
v -0.437500 0.437500 -0.500000
v -0.437500 0.500000 -0.562500
v -0.437500 0.437500 -0.562500
v -0.500000 0.500000 -0.562500
v -0.500000 0.437500 -0.562500
v -0.500000 0.500000 -0.500000
v -0.500000 0.437500 -0.500000
v 0.375000 -0.401563 1.125000
v 0.375000 -0.425000 1.125000
v 0.375000 -0.401562 -0.875000
v 0.375000 -0.425000 -0.875000
v -0.375000 -0.401562 -0.875000
v -0.375000 -0.425000 -0.875000
v -0.375000 -0.401563 1.125000
v -0.375000 -0.425000 1.125000
v -0.375000 -0.375000 1.125000
v -0.375000 -0.431250 1.125000
v -0.375000 -0.375000 -0.875000
v -0.375000 -0.431250 -0.875000
v -0.431250 -0.375000 -0.875000
v -0.431250 -0.431250 -0.875000
v -0.431250 -0.375000 1.125000
v -0.431250 -0.431250 1.125000
v 0.431250 -0.375000 1.125000
v 0.431250 -0.431250 1.125000
v 0.431250 -0.375000 -0.875000
v 0.431250 -0.431250 -0.875000
v 0.375000 -0.375000 -0.875000
v 0.375000 -0.431250 -0.875000
v 0.375000 -0.375000 1.125000
v 0.375000 -0.431250 1.125000
v -0.431250 -0.312500 -0.812500
v -0.431250 -0.500000 -0.812500
v -0.431250 -0.312500 -0.875000
v -0.431250 -0.500000 -0.875000
v -0.456250 -0.312500 -0.875000
v -0.456250 -0.500000 -0.875000
v -0.456250 -0.312500 -0.812500
v -0.456250 -0.500000 -0.812500
v 0.456250 -0.312500 -0.812500
v 0.456250 -0.500000 -0.812500
v 0.456250 -0.312500 -0.875000
v 0.456250 -0.500000 -0.875000
v 0.431250 -0.312500 -0.875000
v 0.431250 -0.500000 -0.875000
v 0.431250 -0.312500 -0.812500
v 0.431250 -0.500000 -0.812500
vt 0.0000 1.0000
vt 0.0000 0.9344
vt 0.1250 1.0000
vt 0.1250 0.9344
vt 0.0000 1.0000
vt 0.0000 0.9344
vt 0.1250 1.0000
vt 0.1250 0.9344
vt 0.1250 0.9344
vt 0.0000 0.9344
vt 0.1250 1.0000
vt 0.0000 1.0000
vt 0.0000 1.0000
vt 0.0000 0.9344
vt 0.1250 1.0000
vt 0.1250 0.9344
vt 0.0000 1.0000
vt 0.0000 0.9344
vt 0.1250 1.0000
vt 0.1250 0.9344
vt 0.0000 1.0000
vt 0.0000 0.9344
vt 0.1250 1.0000
vt 0.1250 0.9344
vt 0.0000 1.0000
vt 0.0000 0.9344
vt 0.1250 1.0000
vt 0.1250 0.9344
vt 0.1250 0.9344
vt 0.0000 0.9344
vt 0.1250 1.0000
vt 0.0000 1.0000
vt 0.0000 1.0000
vt 0.0000 0.9344
vt 0.1250 1.0000
vt 0.1250 0.9344
vt 0.0000 1.0000
vt 0.0000 0.9344
vt 0.1250 1.0000
vt 0.1250 0.9344
vt 0.0000 1.0000
vt 0.0000 0.8750
vt 0.0203 1.0000
vt 0.0203 0.8750
vt 0.0000 1.0000
vt 0.0000 0.8750
vt 0.0203 1.0000
vt 0.0203 0.8750
vt 0.0203 0.8750
vt 0.0000 0.8750
vt 0.0203 1.0000
vt 0.0000 1.0000
vt 0.0000 1.0000
vt 0.0000 0.8750
vt 0.0203 1.0000
vt 0.0203 0.8750
vt 0.0000 1.0000
vt 0.0000 0.8750
vt 0.0203 1.0000
vt 0.0203 0.8750
vt 0.0203 0.9422
vt 0.0203 1.0000
vt 0.0000 0.9422
vt 0.0000 1.0000
vt 0.0203 0.9422
vt 0.0203 1.0000
vt 0.0000 0.9422
vt 0.0000 1.0000
vt 0.0000 1.0000
vt 0.0203 1.0000
vt 0.0000 0.9422
vt 0.0203 0.9422
vt 0.0203 0.9422
vt 0.0203 1.0000
vt 0.0000 0.9422
vt 0.0000 1.0000
vt 0.0203 0.9422
vt 0.0203 1.0000
vt 0.0000 0.9422
vt 0.0000 1.0000
vt 0.0000 0.9422
vt 0.0172 0.9422
vt 0.0000 1.0000
vt 0.0172 1.0000
vt 0.0000 0.9422
vt 0.0172 0.9422
vt 0.0000 1.0000
vt 0.0172 1.0000
vt 0.0172 1.0000
vt 0.0172 0.9422
vt 0.0000 1.0000
vt 0.0000 0.9422
vt 0.0000 0.9422
vt 0.0172 0.9422
vt 0.0000 1.0000
vt 0.0172 1.0000
vt 0.0000 0.9422
vt 0.0172 0.9422
vt 0.0000 1.0000
vt 0.0172 1.0000
vt 0.0000 1.0000
vt 0.0000 0.0000
vt 0.0562 1.0000
vt 0.0562 0.0000
vt 0.0000 1.0000
vt 0.0000 0.0000
vt 0.0562 1.0000
vt 0.0562 0.0000
vt 0.0000 0.0000
vt 0.0562 0.0000
vt 0.0000 1.0000
vt 0.0562 1.0000
vt 0.0000 1.0000
vt 0.0000 0.0000
vt 0.0562 1.0000
vt 0.0562 0.0000
vt 0.0000 1.0000
vt 0.0000 0.0000
vt 0.0562 1.0000
vt 0.0562 0.0000
vt 0.0000 1.0000
vt 0.0000 0.0000
vt 0.0562 1.0000
vt 0.0562 0.0000
vt 0.0000 1.0000
vt 0.0000 0.0000
vt 0.0562 1.0000
vt 0.0562 0.0000
vt 0.0000 0.0000
vt 0.0562 0.0000
vt 0.0000 1.0000
vt 0.0562 1.0000
vt 0.0000 1.0000
vt 0.0000 0.0000
vt 0.0562 1.0000
vt 0.0562 0.0000
vt 0.0000 1.0000
vt 0.0000 0.0000
vt 0.0562 1.0000
vt 0.0562 0.0000
vt 0.0000 1.0000
vt 0.0000 0.8125
vt 0.0625 1.0000
vt 0.0625 0.8125
vt 0.0000 1.0000
vt 0.0000 0.8125
vt 0.0625 1.0000
vt 0.0625 0.8125
vt 0.0000 0.8125
vt 0.0625 0.8125
vt 0.0000 1.0000
vt 0.0625 1.0000
vt 0.0000 1.0000
vt 0.0000 0.8125
vt 0.0625 1.0000
vt 0.0625 0.8125
vt 0.0000 1.0000
vt 0.0000 0.8125
vt 0.0625 1.0000
vt 0.0625 0.8125
vt 0.0000 1.0000
vt 0.0000 0.8125
vt 0.0625 1.0000
vt 0.0625 0.8125
vt 0.0000 1.0000
vt 0.0000 0.8125
vt 0.0625 1.0000
vt 0.0625 0.8125
vt 0.0000 0.8125
vt 0.0625 0.8125
vt 0.0000 1.0000
vt 0.0625 1.0000
vt 0.0000 1.0000
vt 0.0000 0.8125
vt 0.0625 1.0000
vt 0.0625 0.8125
vt 0.0000 1.0000
vt 0.0000 0.8125
vt 0.0625 1.0000
vt 0.0625 0.8125
vt 1.0000 0.0000
vt 1.0000 1.0000
vt 0.0000 0.0000
vt 0.0000 1.0000
vt 1.0000 0.0000
vt 1.0000 1.0000
vt 0.0000 0.0000
vt 0.0000 1.0000
vt 1.0000 1.0000
vt 0.0000 1.0000
vt 1.0000 0.0000
vt 0.0000 0.0000
vt 1.0000 0.0000
vt 1.0000 1.0000
vt 0.0000 0.0000
vt 0.0000 1.0000
vt 1.0000 0.0000
vt 1.0000 1.0000
vt 0.0000 0.0000
vt 0.0000 1.0000
vt 1.0000 0.0000
vt 1.0000 1.0000
vt 0.0000 0.0000
vt 0.0000 1.0000
vt 1.0000 1.0000
vt 0.0000 1.0000
vt 1.0000 0.0000
vt 0.0000 0.0000
vt 0.0000 1.0000
vt 1.0000 0.0000
vt 0.0000 0.0000
vt 1.0000 1.0000
vt 1.0000 0.0000
vt 0.0000 0.0000
vt 1.0000 1.0000
vt 0.0000 1.0000
vt 0.0000 0.0000
vt 1.0000 1.0000
vt 1.0000 0.0000
vt 0.0000 0.0000
vt 0.0000 1.0000
vt 0.0000 0.0000
vt 1.0000 1.0000
vt 1.0000 0.0000
vt 0.0000 1.0000
vt 0.0000 0.0000
vt 1.0000 1.0000
vt 1.0000 0.0000
vt 0.0000 0.0000
vt 1.0000 0.0000
vt 0.0000 1.0000
vt 1.0000 1.0000
vt 0.0000 1.0000
vt 0.0000 0.0000
vt 1.0000 1.0000
vt 1.0000 0.0000
vt 0.0000 1.0000
vt 0.0000 0.0000
vt 1.0000 1.0000
vt 1.0000 0.0000
vt 0.0000 1.0000
vt 0.0000 0.0000
vt 0.8750 1.0000
vt 0.8750 0.0000
vt 0.0000 1.0000
vt 0.0000 0.0000
vt 0.8750 1.0000
vt 0.8750 0.0000
vt 0.0000 0.0000
vt 0.8750 0.0000
vt 0.0000 1.0000
vt 0.8750 1.0000
vt 0.0000 1.0000
vt 0.0000 0.0000
vt 0.8750 1.0000
vt 0.8750 0.0000
vt 0.0000 1.0000
vt 0.0000 0.0000
vt 0.8750 1.0000
vt 0.8750 0.0000
vt 1.0000 0.0000
vt 1.0000 1.0000
vt 0.0000 0.0000
vt 0.0000 1.0000
vt 1.0000 0.0000
vt 1.0000 1.0000
vt 0.0000 0.0000
vt 0.0000 1.0000
vt 0.0000 1.0000
vt 1.0000 1.0000
vt 1.0000 0.0000
vt 0.0000 0.0000
vt 1.0000 0.0000
vt 1.0000 1.0000
vt 0.0000 0.0000
vt 0.0000 1.0000
vt 1.0000 0.0000
vt 1.0000 1.0000
vt 0.0000 0.0000
vt 0.0000 1.0000
vt 0.0000 1.0000
vt 0.0000 0.0000
vt 1.0000 1.0000
vt 1.0000 0.0000
vt 0.0000 1.0000
vt 0.0000 0.0000
vt 1.0000 1.0000
vt 1.0000 0.0000
vt 1.0000 0.0000
vt 0.0000 0.0000
vt 1.0000 1.0000
vt 0.0000 1.0000
vt 0.0000 1.0000
vt 0.0000 0.0000
vt 1.0000 1.0000
vt 1.0000 0.0000
vt 0.0000 1.0000
vt 0.0000 0.0000
vt 1.0000 1.0000
vt 1.0000 0.0000
vt 0.0000 1.0000
vt 0.0000 0.0000
vt 0.8750 1.0000
vt 0.8750 0.0000
vt 0.0000 1.0000
vt 0.0000 0.0000
vt 0.8750 1.0000
vt 0.8750 0.0000
vt 0.0000 0.0000
vt 0.8750 0.0000
vt 0.0000 1.0000
vt 0.8750 1.0000
vt 0.0000 1.0000
vt 0.0000 0.0000
vt 0.8750 1.0000
vt 0.8750 0.0000
vt 0.0000 1.0000
vt 0.0000 0.0000
vt 0.8750 1.0000
vt 0.8750 0.0000
vt 0.0000 1.0000
vt 0.0000 0.0000
vt 0.8750 1.0000
vt 0.8750 0.0000
vt 0.0000 1.0000
vt 0.0000 0.0000
vt 0.8750 1.0000
vt 0.8750 0.0000
vt 0.0000 0.0000
vt 0.8750 0.0000
vt 0.0000 1.0000
vt 0.8750 1.0000
vt 0.0000 1.0000
vt 0.0000 0.0000
vt 0.8750 1.0000
vt 0.8750 0.0000
vt 0.0000 1.0000
vt 0.0000 0.0000
vt 0.8750 1.0000
vt 0.8750 0.0000
vt 0.0000 1.0000
vt 0.0000 0.0000
vt 0.8594 1.0000
vt 0.8594 0.0000
vt 0.0000 1.0000
vt 0.0000 0.0000
vt 0.8594 1.0000
vt 0.8594 0.0000
vt 0.0000 0.0000
vt 0.8594 0.0000
vt 0.0000 1.0000
vt 0.8594 1.0000
vt 0.0000 1.0000
vt 0.0000 0.0000
vt 0.8594 1.0000
vt 0.8594 0.0000
vt 0.0000 1.0000
vt 0.0000 0.0000
vt 0.8594 1.0000
vt 0.8594 0.0000
vn 0.9239 0.0000 -0.3827
vn -0.9239 0.0000 0.3827
vn 0.0000 1.0000 0.0000
vn 0.0000 -1.0000 0.0000
vn 0.3827 0.0000 0.9239
vn -0.3827 0.0000 -0.9239
vn 1.0000 0.0000 0.0000
vn -1.0000 0.0000 0.0000
vn 0.0000 0.0000 1.0000
vn 0.0000 0.0000 -1.0000
usemtl 1
s 1
f 49/1/1 50/2/1 51/3/1
f 50/2/1 52/4/1 51/3/1
f 53/5/2 54/6/2 55/7/2
f 54/6/2 56/8/2 55/7/2
f 53/9/3 55/7/3 51/10/3
f 55/7/3 49/1/3 51/10/3
f 56/8/4 54/11/4 50/2/4
f 54/11/4 52/12/4 50/2/4
f 55/13/5 56/14/5 49/15/5
f 56/14/5 50/16/5 49/15/5
f 51/17/6 52/18/6 53/19/6
f 52/18/6 54/20/6 53/19/6
f 57/21/1 58/22/1 59/23/1
f 58/22/1 60/24/1 59/23/1
f 61/25/2 62/26/2 63/27/2
f 62/26/2 64/28/2 63/27/2
f 61/29/3 63/27/3 59/30/3
f 63/27/3 57/21/3 59/30/3
f 64/28/4 62/31/4 58/22/4
f 62/31/4 60/32/4 58/22/4
f 63/33/5 64/34/5 57/35/5
f 64/34/5 58/36/5 57/35/5
f 59/37/6 60/38/6 61/39/6
f 60/38/6 62/40/6 61/39/6
f 65/41/1 66/42/1 67/43/1
f 66/42/1 68/44/1 67/43/1
f 69/45/2 70/46/2 71/47/2
f 70/46/2 72/48/2 71/47/2
f 69/49/3 71/47/3 67/50/3
f 71/47/3 65/41/3 67/50/3
f 72/48/4 70/51/4 66/42/4
f 70/51/4 68/52/4 66/42/4
f 71/53/5 72/54/5 65/55/5
f 72/54/5 66/56/5 65/55/5
f 67/57/6 68/58/6 69/59/6
f 68/58/6 70/60/6 69/59/6
f 73/61/1 74/62/1 75/63/1
f 74/62/1 76/64/1 75/63/1
f 77/65/2 78/66/2 79/67/2
f 78/66/2 80/68/2 79/67/2
f 77/69/3 79/67/3 75/70/3
f 79/67/3 73/61/3 75/70/3
f 80/68/4 78/71/4 74/62/4
f 78/71/4 76/72/4 74/62/4
f 79/73/5 80/74/5 73/75/5
f 80/74/5 74/76/5 73/75/5
f 75/77/6 76/78/6 77/79/6
f 76/78/6 78/80/6 77/79/6
f 81/81/1 82/82/1 83/83/1
f 82/82/1 84/84/1 83/83/1
f 85/85/2 86/86/2 87/87/2
f 86/86/2 88/88/2 87/87/2
f 85/89/3 87/87/3 83/90/3
f 87/87/3 81/81/3 83/90/3
f 88/88/4 86/91/4 82/82/4
f 86/91/4 84/92/4 82/82/4
f 87/93/5 88/94/5 81/95/5
f 88/94/5 82/96/5 81/95/5
f 83/97/6 84/98/6 85/99/6
f 84/98/6 86/100/6 85/99/6
f 113/101/7 114/102/7 115/103/7
f 114/102/7 116/104/7 115/103/7
f 117/105/8 118/106/8 119/107/8
f 118/106/8 120/108/8 119/107/8
f 117/105/3 119/109/3 115/103/3
f 119/109/3 113/110/3 115/103/3
f 120/111/4 118/106/4 114/112/4
f 118/106/4 116/104/4 114/112/4
f 119/113/9 120/114/9 113/115/9
f 120/114/9 114/116/9 113/115/9
f 115/117/10 116/118/10 117/119/10
f 116/118/10 118/120/10 117/119/10
f 121/121/7 122/122/7 123/123/7
f 122/122/7 124/124/7 123/123/7
f 125/125/8 126/126/8 127/127/8
f 126/126/8 128/128/8 127/127/8
f 125/125/3 127/129/3 123/123/3
f 127/129/3 121/130/3 123/123/3
f 128/131/4 126/126/4 122/132/4
f 126/126/4 124/124/4 122/132/4
f 127/133/9 128/134/9 121/135/9
f 128/134/9 122/136/9 121/135/9
f 123/137/10 124/138/10 125/139/10
f 124/138/10 126/140/10 125/139/10
f 129/141/7 130/142/7 131/143/7
f 130/142/7 132/144/7 131/143/7
f 133/145/8 134/146/8 135/147/8
f 134/146/8 136/148/8 135/147/8
f 133/145/3 135/149/3 131/143/3
f 135/149/3 129/150/3 131/143/3
f 136/151/4 134/146/4 130/152/4
f 134/146/4 132/144/4 130/152/4
f 135/153/9 136/154/9 129/155/9
f 136/154/9 130/156/9 129/155/9
f 131/157/10 132/158/10 133/159/10
f 132/158/10 134/160/10 133/159/10
f 137/161/7 138/162/7 139/163/7
f 138/162/7 140/164/7 139/163/7
f 141/165/8 142/166/8 143/167/8
f 142/166/8 144/168/8 143/167/8
f 141/165/3 143/169/3 139/163/3
f 143/169/3 137/170/3 139/163/3
f 144/171/4 142/166/4 138/172/4
f 142/166/4 140/164/4 138/172/4
f 143/173/9 144/174/9 137/175/9
f 144/174/9 138/176/9 137/175/9
f 139/177/10 140/178/10 141/179/10
f 140/178/10 142/180/10 141/179/10
usemtl 0
f 1/181/7 2/182/7 3/183/7
f 2/182/7 4/184/7 3/183/7
f 5/185/8 6/186/8 7/187/8
f 6/186/8 8/188/8 7/187/8
f 5/185/3 7/189/3 3/183/3
f 7/189/3 1/190/3 3/183/3
f 8/191/4 6/186/4 2/192/4
f 6/186/4 4/184/4 2/192/4
f 7/193/9 8/194/9 1/195/9
f 8/194/9 2/196/9 1/195/9
f 3/197/10 4/198/10 5/199/10
f 4/198/10 6/200/10 5/199/10
f 9/201/7 10/202/7 11/203/7
f 10/202/7 12/204/7 11/203/7
f 13/205/8 14/206/8 15/207/8
f 14/206/8 16/208/8 15/207/8
f 13/205/3 15/209/3 11/210/3
f 15/209/3 9/211/3 11/210/3
f 16/212/4 14/206/4 10/213/4
f 14/206/4 12/214/4 10/213/4
f 15/215/9 16/216/9 9/201/9
f 16/216/9 10/217/9 9/201/9
f 11/218/10 12/204/10 13/219/10
f 12/204/10 14/220/10 13/219/10
f 17/221/7 18/222/7 19/223/7
f 18/222/7 20/224/7 19/223/7
f 21/225/8 22/226/8 23/227/8
f 22/226/8 24/228/8 23/227/8
f 21/225/3 23/229/3 19/223/3
f 23/229/3 17/230/3 19/223/3
f 24/231/4 22/226/4 18/232/4
f 22/226/4 20/224/4 18/232/4
f 23/233/9 24/234/9 17/235/9
f 24/234/9 18/236/9 17/235/9
f 19/237/10 20/238/10 21/239/10
f 20/238/10 22/240/10 21/239/10
f 25/241/7 26/242/7 27/243/7
f 26/242/7 28/244/7 27/243/7
f 29/245/8 30/246/8 31/247/8
f 30/246/8 32/248/8 31/247/8
f 29/245/3 31/249/3 27/243/3
f 31/249/3 25/250/3 27/243/3
f 32/251/4 30/246/4 26/252/4
f 30/246/4 28/244/4 26/252/4
f 31/253/9 32/254/9 25/255/9
f 32/254/9 26/256/9 25/255/9
f 27/257/10 28/258/10 29/259/10
f 28/258/10 30/260/10 29/259/10
f 33/261/7 34/262/7 35/263/7
f 34/262/7 36/264/7 35/263/7
f 37/265/8 38/266/8 39/267/8
f 38/266/8 40/268/8 39/267/8
f 37/269/3 39/267/3 35/270/3
f 39/267/3 33/261/3 35/270/3
f 40/271/4 38/266/4 34/272/4
f 38/266/4 36/264/4 34/272/4
f 39/273/9 40/274/9 33/275/9
f 40/274/9 34/276/9 33/275/9
f 35/277/10 36/278/10 37/279/10
f 36/278/10 38/280/10 37/279/10
f 41/281/1 42/282/1 43/283/1
f 42/282/1 44/284/1 43/283/1
f 45/285/2 46/286/2 47/287/2
f 46/286/2 48/288/2 47/287/2
f 45/289/3 47/287/3 43/290/3
f 47/287/3 41/281/3 43/290/3
f 48/288/4 46/291/4 42/282/4
f 46/291/4 44/292/4 42/282/4
f 47/293/5 48/294/5 41/295/5
f 48/294/5 42/296/5 41/295/5
f 43/297/6 44/298/6 45/299/6
f 44/298/6 46/300/6 45/299/6
f 89/301/7 90/302/7 91/303/7
f 90/302/7 92/304/7 91/303/7
f 93/305/8 94/306/8 95/307/8
f 94/306/8 96/308/8 95/307/8
f 93/305/3 95/309/3 91/303/3
f 95/309/3 89/310/3 91/303/3
f 96/311/4 94/306/4 90/312/4
f 94/306/4 92/304/4 90/312/4
f 95/313/9 96/314/9 89/315/9
f 96/314/9 90/316/9 89/315/9
f 91/317/10 92/318/10 93/319/10
f 92/318/10 94/320/10 93/319/10
f 97/321/7 98/322/7 99/323/7
f 98/322/7 100/324/7 99/323/7
f 101/325/8 102/326/8 103/327/8
f 102/326/8 104/328/8 103/327/8
f 101/325/3 103/329/3 99/323/3
f 103/329/3 97/330/3 99/323/3
f 104/331/4 102/326/4 98/332/4
f 102/326/4 100/324/4 98/332/4
f 103/333/9 104/334/9 97/335/9
f 104/334/9 98/336/9 97/335/9
f 99/337/10 100/338/10 101/339/10
f 100/338/10 102/340/10 101/339/10
usemtl 2
f 105/341/7 106/342/7 107/343/7
f 106/342/7 108/344/7 107/343/7
f 109/345/8 110/346/8 111/347/8
f 110/346/8 112/348/8 111/347/8
f 109/345/3 111/349/3 107/343/3
f 111/349/3 105/350/3 107/343/3
f 112/351/4 110/346/4 106/352/4
f 110/346/4 108/344/4 106/352/4
f 111/353/9 112/354/9 105/355/9
f 112/354/9 106/356/9 105/355/9
f 107/357/10 108/358/10 109/359/10
f 108/358/10 110/360/10 109/359/10
