# Blender v2.78 (sub 0) OBJ File: ''
# www.blender.org
mtllib gold_ingot.mtl
o texte
v 0.073437 -0.371813 0.187500
v 0.073437 -0.371875 0.187500
v 0.073437 -0.371812 -0.187500
v 0.073437 -0.371875 -0.187500
v -0.075000 -0.371812 -0.187500
v -0.075000 -0.371875 -0.187500
v -0.075000 -0.371813 0.187500
v -0.075000 -0.371875 0.187500
vt 0.0000 1.0000
vt 0.0000 0.9996
vt 0.0480 1.0000
vt 0.0480 0.9996
vt 0.0000 1.0000
vt 0.0000 0.9996
vt 0.0480 1.0000
vt 0.0480 0.9996
vt 0.0000 1.0000
vt 0.0000 0.9996
vt 0.0190 1.0000
vt 0.0190 0.9996
vt 0.0000 1.0000
vt 0.0000 0.9996
vt 0.0190 1.0000
vt 0.0190 0.9996
vt 0.2700 1.0000
vt 0.2700 0.0401
vt 0.7399 1.0000
vt 0.7399 0.0401
vt 0.2700 0.0401
vt 0.2700 1.0000
vt 0.7399 0.0401
vt 0.7399 1.0000
vn 1.0000 0.0000 0.0000
vn -1.0000 0.0000 0.0000
vn 0.0000 0.0000 1.0000
vn 0.0000 0.0000 -1.0000
vn 0.0000 1.0000 0.0000
vn 0.0000 -1.0000 -0.0000
g texte_texte_none
usemtl none
s 1
f 1/1/1 2/2/1 3/3/1
f 2/2/1 4/4/1 3/3/1
f 5/5/2 6/6/2 7/7/2
f 6/6/2 8/8/2 7/7/2
f 7/9/3 8/10/3 1/11/3
f 8/10/3 2/12/3 1/11/3
f 3/13/4 4/14/4 5/15/4
f 4/14/4 6/16/4 5/15/4
g texte_texte_0
usemtl 0
f 5/17/5 7/18/5 3/19/5
f 7/18/5 1/20/5 3/19/5
f 8/21/6 6/22/6 2/23/6
f 6/22/6 4/24/6 2/23/6
o cube
v 0.125000 -0.484375 0.250000
v 0.125000 -0.500000 0.250000
v 0.125000 -0.484375 -0.250000
v 0.125000 -0.500000 -0.250000
v -0.125000 -0.484375 -0.250000
v -0.125000 -0.500000 -0.250000
v -0.125000 -0.484375 0.250000
v -0.125000 -0.500000 0.250000
v 0.079687 -0.373438 0.250000
v 0.079687 -0.484375 0.250000
v 0.079687 -0.373437 -0.250000
v 0.079687 -0.484375 -0.250000
v -0.079687 -0.373437 -0.250000
v -0.079687 -0.484375 -0.250000
v -0.079687 -0.373438 0.250000
v -0.079687 -0.484375 0.250000
v 0.078901 -0.373913 0.248437
v 0.124344 -0.483624 0.248437
v 0.078901 -0.373913 -0.248438
v 0.124344 -0.483624 -0.248438
v 0.039925 -0.390058 -0.248438
v 0.085368 -0.499768 -0.248438
v 0.039925 -0.390058 0.248437
v 0.085368 -0.499768 0.248437
v -0.039925 -0.390058 0.248437
v -0.085368 -0.499768 0.248437
v -0.039925 -0.390058 -0.248438
v -0.085368 -0.499768 -0.248438
v -0.078901 -0.373913 -0.248438
v -0.124344 -0.483624 -0.248438
v -0.078901 -0.373913 0.248437
v -0.124344 -0.483624 0.248437
vt 0.0050 0.9950
vt 0.0050 0.9938
vt 0.0450 0.9950
vt 0.0450 0.9938
vt 0.0050 0.9950
vt 0.0050 0.9938
vt 0.0450 0.9950
vt 0.0450 0.9938
vt 0.0400 0.9650
vt 0.0400 0.9250
vt 0.0600 0.9650
vt 0.0600 0.9250
vt 0.0400 0.9650
vt 0.0400 0.9250
vt 0.0600 0.9650
vt 0.0600 0.9250
vt 0.0100 0.9600
vt 0.0100 0.9588
vt 0.0300 0.9600
vt 0.0300 0.9588
vt 0.0100 0.9600
vt 0.0100 0.9588
vt 0.0300 0.9600
vt 0.0300 0.9588
vt 0.0150 0.9800
vt 0.0150 0.9400
vt 0.0278 0.9800
vt 0.0278 0.9400
vt 0.0150 0.9800
vt 0.0150 0.9400
vt 0.0278 0.9800
vt 0.0278 0.9400
vt 0.0450 0.9700
vt 0.0450 0.9300
vt 0.0577 0.9700
vt 0.0577 0.9300
vt 0.0150 0.9700
vt 0.0150 0.9611
vt 0.0278 0.9700
vt 0.0278 0.9611
vt 0.0150 0.9700
vt 0.0150 0.9611
vt 0.0278 0.9700
vt 0.0278 0.9611
vt 0.0050 0.9950
vt 0.0050 0.9553
vt 0.0145 0.9950
vt 0.0145 0.9553
vt 0.0100 0.9850
vt 0.0100 0.9755
vt 0.0134 0.9850
vt 0.0134 0.9755
vt 0.0700 0.9700
vt 0.0700 0.9605
vt 0.0734 0.9700
vt 0.0734 0.9605
vt 0.0150 0.9700
vt 0.0150 0.9605
vt 0.0547 0.9700
vt 0.0547 0.9605
vt 0.0100 0.9750
vt 0.0100 0.9655
vt 0.0134 0.9750
vt 0.0134 0.9655
vt 0.0100 0.9600
vt 0.0100 0.9505
vt 0.0134 0.9600
vt 0.0134 0.9505
vt 0.0000 1.0000
vt 0.0000 0.5000
vt 0.1594 1.0000
vt 0.1594 0.5000
vt 0.0152 1.0000
vt 0.0000 1.0000
vt 0.0152 0.9946
vt 0.0000 0.9946
vt 0.0000 1.0000
vt 0.0152 0.9946
vt 0.0000 0.9946
vt 0.4969 1.0000
vt 0.4969 0.9578
vt 0.0000 0.9578
vt 0.0152 1.0000
vt 0.0000 1.0000
vt 0.0152 0.9360
vt 0.0000 0.9360
vt 0.0152 1.0000
vt 0.0000 1.0000
vt 0.0000 0.9360
vt 0.4969 1.0000
vt 0.0000 1.0000
vt 0.4969 0.9578
vt 0.0000 0.9578
vn 1.0000 0.0000 0.0000
vn -1.0000 0.0000 0.0000
vn 0.0000 1.0000 0.0000
vn 0.0000 -1.0000 -0.0000
vn 0.0000 0.0000 1.0000
vn 0.0000 0.0000 -1.0000
vn 0.9239 0.3827 0.0000
vn -0.9239 0.3827 0.0000
vn -0.9239 -0.3827 -0.0000
vn -0.3827 0.9239 0.0000
vn 0.3827 -0.9239 -0.0000
vn 0.9239 -0.3827 0.0000
vn 0.3827 0.9239 0.0000
vn -0.3827 -0.9239 0.0000
g cube_cube_0
usemtl 0
s 1
f 9/25/7 10/26/7 11/27/7
f 10/26/7 12/28/7 11/27/7
f 13/29/8 14/30/8 15/31/8
f 14/30/8 16/32/8 15/31/8
f 13/33/9 15/34/9 11/35/9
f 15/34/9 9/36/9 11/35/9
f 16/37/10 14/38/10 10/39/10
f 14/38/10 12/40/10 10/39/10
f 15/41/11 16/42/11 9/43/11
f 16/42/11 10/44/11 9/43/11
f 11/45/12 12/46/12 13/47/12
f 12/46/12 14/48/12 13/47/12
f 17/49/7 18/50/7 19/51/7
f 18/50/7 20/52/7 19/51/7
f 21/53/8 22/54/8 23/55/8
f 22/54/8 24/56/8 23/55/8
f 21/57/9 23/58/9 19/59/9
f 23/58/9 17/60/9 19/59/9
f 23/61/11 24/62/11 17/63/11
f 24/62/11 18/64/11 17/63/11
f 19/65/12 20/66/12 21/67/12
f 20/66/12 22/68/12 21/67/12
f 25/69/13 26/70/13 27/71/13
f 26/70/13 28/72/13 27/71/13
f 31/73/11 32/74/11 25/75/11
f 32/74/11 26/76/11 25/75/11
f 27/77/12 28/78/12 29/79/12
f 28/78/12 30/80/12 29/79/12
f 37/81/14 38/82/14 39/83/14
f 38/82/14 40/84/14 39/83/14
f 39/85/11 40/86/11 33/87/11
f 40/86/11 34/88/11 33/87/11
f 35/89/12 36/90/12 37/91/12
f 36/90/12 38/92/12 37/91/12
g cube_cube_none
usemtl none
f 24/93/10 22/94/10 18/95/10
f 22/94/10 20/96/10 18/95/10
f 29/97/15 30/98/15 31/99/15
f 30/98/15 32/100/15 31/99/15
f 29/97/16 31/101/16 27/102/16
f 31/101/16 25/103/16 27/102/16
f 32/104/17 30/98/17 26/105/17
f 30/98/17 28/106/17 26/105/17
f 33/107/18 34/108/18 35/109/18
f 34/108/18 36/110/18 35/109/18
f 37/111/19 39/112/19 35/109/19
f 39/112/19 33/113/19 35/109/19
f 40/114/20 38/115/20 34/116/20
f 38/115/20 36/117/20 34/116/20
